<svg clip-rule="evenodd" fill-rule="evenodd" stroke-linejoin="round" stroke-miterlimit="2" viewBox="0 0 2288 1407" xmlns="http://www.w3.org/2000/svg"><path d="m0 0h2287.5v1406.25h-2287.5z" fill="#101935"/><g fill="#1e91d6" fill-rule="nonzero"><path d="m692.2 984.933c14.392 0 20.625-7.15 20.625-17.875 0-10.358-5.775-14.208-14.85-17.325l-6.05-1.925c-6.967-2.383-9.167-4.95-9.167-10.816 0-5.867 4.217-9.534 11.734-9.534 6.783 0 11.641 1.742 15.216 3.392v-6.142c-3.391-1.65-7.7-3.391-14.941-3.391-12.834 0-19.159 6.783-19.159 16.316 0 9.35 4.859 13.75 13.475 16.592l5.959 2.108c7.425 2.384 10.45 4.95 10.45 11.275 0 6.692-4.125 11.092-13.567 11.092-6.508 0-12.558-1.65-17.233-4.033v6.141c4.125 2.292 9.991 4.125 17.508 4.125z"/><path d="m748.575 984.842c16.867 0 27.042-11.642 27.042-30.984v-1.466c0-20.167-10.175-31.075-26.767-31.075-16.958 0-27.133 11.641-27.133 30.983v1.467c0 20.166 10.175 31.075 26.858 31.075zm.183-5.959c-13.75 0-19.25-10.266-19.25-25.116v-2.842c0-13.75 6.325-23.65 18.975-23.65 13.934.092 19.342 10.175 19.342 25.117v2.841c0 13.659-6.325 23.65-19.067 23.65z"/><path d="m787.9 983.833h7.242v-27.591h21.908v-6.234h-21.908v-21.541h28.416v-6.142h-35.658z"/><path d="m848.675 983.833h7.15v-55.366h18.792v-6.142h-44.734v6.142h18.792z"/><path d="m896.158 983.833h7.15l14.117-49.225h.183l13.75 49.225h7.059l15.308-61.508h-6.6l-12.1 50.142h-.092l-14.3-50.142h-5.866l-14.392 50.142h-.275l-12.1-50.142h-7.242z"/><path d="m955.65 983.833h6.967l6.325-17.966h24.658l6.508 17.966h7.609l-22.459-61.508h-7.058zm25.483-51.791h.184l9.991 27.683h-20.258z"/><path d="m1017.25 983.833h7.242v-26.4h11.733l15.308 26.4h8.25l-16.316-27.683v-.458c7.608-2.384 12.008-7.334 12.008-16.134 0-11.091-6.783-17.233-20.35-17.233h-17.875zm7.242-32.083v-23.283h10.083c9.442 0 13.2 3.575 13.2 11.183 0 7.975-3.483 12.1-13.108 12.1z"/><path d="m1070.33 983.833h36.758v-6.141h-29.516v-22.459h22.55v-6.141h-22.55v-20.625h29.241v-6.142h-36.483z"/><path d="m1144.76 983.833h18.334c19.983 0 28.966-11.275 28.966-30.616v-1.742c0-19.617-10.358-29.15-29.058-29.15h-18.242zm7.242-6.233v-49.042h10.267c14.116 0 21.908 5.867 21.908 22.917v2.75c0 16.408-6.417 23.375-20.9 23.375z"/><path d="m1204.43 983.833h36.759v-6.141h-29.517v-22.459h22.55v-6.141h-22.55v-20.625h29.242v-6.142h-36.484z"/><path d="m1270.98 983.833h6.784l22.275-61.508h-6.875l-18.334 51.7h-.183l-18.425-51.7h-7.517z"/><path d="m1309.85 983.833h36.758v-6.141h-29.516v-22.459h22.55v-6.141h-22.55v-20.625h29.241v-6.142h-36.483z"/><path d="m1360.17 983.833h35.108v-6.141h-27.775v-55.367h-7.333z"/><path d="m1429.84 984.842c16.866 0 27.041-11.642 27.041-30.984v-1.466c0-20.167-10.175-31.075-26.766-31.075-16.959 0-27.134 11.641-27.134 30.983v1.467c0 20.166 10.175 31.075 26.859 31.075zm.183-5.959c-13.75 0-19.25-10.266-19.25-25.116v-2.842c0-13.75 6.325-23.65 18.975-23.65 13.933.092 19.342 10.175 19.342 25.117v2.841c0 13.659-6.325 23.65-19.067 23.65z"/><path d="m1469.17 983.833h7.333v-24.658h12.558c11.734 0 19.617-6.6 19.617-18.7 0-11.55-6.692-18.15-20.533-18.15h-18.975zm7.333-30.708v-24.658h10.908c9.992 0 13.475 3.758 13.475 12.466 0 8.25-3.758 12.192-13.291 12.192z"/><path d="m1519.95 983.833h36.758v-6.141h-29.516v-22.459h22.55v-6.141h-22.55v-20.625h29.241v-6.142h-36.483z"/><path d="m1570.28 983.833h7.242v-26.4h11.733l15.308 26.4h8.25l-16.316-27.683v-.458c7.608-2.384 12.008-7.334 12.008-16.134 0-11.091-6.783-17.233-20.35-17.233h-17.875zm7.242-32.083v-23.283h10.083c9.442 0 13.2 3.575 13.2 11.183 0 7.975-3.483 12.1-13.108 12.1z"/></g><path d="m389.063 658.828v184.922h-62.5v-281.25h66.003l105.194 133.018 105.194-133.018h67.359v281.25h-62.5v-186.635l-109.754 139.54-.299-.379-.3.379z" fill="#edf5fc"/><path d="m864.691 641.584-94.179 202.166h-68.95l131.021-281.25h64.216l131.021 281.25h-68.949z" fill="#f0e100"/><path d="m1045.31 625-15.355 32.856-56.622-26.461 20.644-44.175c5.558-14.452 19.578-24.72 35.978-24.72h296.604v62.5h-62.499v156.25h31.249v62.5h-55.218c-21.266 0-38.532-17.265-38.532-38.531l.001-180.219h-62.501v218.75h-62.5v-218.75h-31.25z" fill="#edf5fc"/><path d="m1494.83 728.115v.01l-44.571 53.125h129.432v-31.25h62.5v54.687c0 21.56-17.503 39.063-39.062 39.063h-203.125c-8.871.007-17.792-2.988-25.114-9.13-5.754-4.828-9.765-10.967-11.964-17.615-1.287-3.873-1.985-8.015-1.985-12.318-.004-8.866 2.991-17.782 9.13-25.1l64.15-76.462-64.149-76.462c-6.139-7.318-9.135-16.234-9.131-25.101 0-4.337.709-8.511 2.016-12.411 2.206-6.612 6.207-12.716 11.934-17.521 7.321-6.142 16.242-9.137 25.113-9.13h203.125c21.559 0 39.062 17.503 39.062 39.062v54.688h-62.5v-31.25h-129.431l44.57 53.124v.011c5.648 6.775 9.048 15.488 9.048 24.99s-3.4 18.215-9.048 24.99z" fill="#23ce6b"/><path d="m1960.94 601.031-.001 204.188c0 21.266-17.265 38.531-38.531 38.531h-204.187c-21.266 0-38.532-17.265-38.532-38.531v-204.188c0-21.266 17.266-38.531 38.532-38.531h204.187c21.266 0 38.532 17.265 38.532 38.531zm-106.695 23.969h-112.055v112.056zm-67.861 156.25h112.056v-112.056z" fill="#edf5fc"/></svg>